<svg xmlns="http://www.w3.org/2000/svg">
  <symbol id="logo" width="222" height="66" viewBox="0 0 222 66" fill="none">
    <path d="M62.4889 33.2087H59.5693V26.3998H52.2648V33.2087H49.3452V17.6301H52.2648V24.3313H59.5693V17.6301H62.4889V33.2087Z" fill="#3A4959"/>
    <path d="M76.5346 17.6301V19.9357H69.6288V24.2559H75.0694V26.486H69.6288V30.8924H76.5346V33.2087H66.7092V17.6301H76.5346Z" fill="#3A4959"/>
    <path d="M93.8104 33.2087H91.5695C91.3181 33.2087 91.1098 33.1476 90.9446 33.0255C90.7866 32.8963 90.6717 32.7382 90.5998 32.5515L89.4363 29.3733H82.9829L81.8194 32.5515C81.7619 32.7167 81.647 32.8675 81.4746 33.004C81.3094 33.1405 81.1047 33.2087 80.8605 33.2087H78.6089L84.7283 17.6301H87.691L93.8104 33.2087ZM83.7263 27.3263H88.6929L86.7968 22.1442C86.7106 21.9144 86.6136 21.6451 86.5059 21.3362C86.4053 21.0202 86.3048 20.679 86.2042 20.3127C86.1037 20.679 86.0031 21.0202 85.9026 21.3362C85.8092 21.6523 85.7158 21.9288 85.6225 22.1658L83.7263 27.3263Z" fill="#3A4959"/>
    <path d="M99.3902 30.817H105.628V33.2087H96.4921V17.6301H99.3902V30.817Z" fill="#3A4959"/>
    <path d="M117.785 17.6301V20.0111H113.099V33.2087H110.201V20.0111H105.493V17.6301H117.785Z" fill="#3A4959"/>
    <path d="M133.843 33.2087H130.923V26.3998H123.619V33.2087H120.699V17.6301H123.619V24.3313H130.923V17.6301H133.843V33.2087Z" fill="#3A4959"/>
    <path d="M144.99 27.1539V33.2087H142.092V27.1539L136.415 17.6301H138.968C139.219 17.6301 139.417 17.6912 139.56 17.8133C139.711 17.9354 139.837 18.0898 139.937 18.2765L142.792 23.4802C142.958 23.789 143.101 24.0835 143.223 24.3636C143.346 24.6365 143.457 24.9059 143.557 25.1716C143.651 24.8987 143.755 24.6258 143.87 24.3528C143.992 24.0727 144.136 23.7818 144.301 23.4802L147.134 18.2765C147.213 18.1185 147.332 17.9713 147.49 17.8348C147.648 17.6984 147.849 17.6301 148.093 17.6301H150.657L144.99 27.1539Z" fill="#3A4959"/>
    <path d="M167.046 20.4633C166.967 20.6214 166.874 20.7327 166.766 20.7973C166.666 20.862 166.544 20.8943 166.4 20.8943C166.256 20.8943 166.095 20.8404 165.915 20.7327C165.736 20.6178 165.524 20.4921 165.279 20.3556C165.035 20.2191 164.748 20.097 164.418 19.9893C164.094 19.8744 163.71 19.8169 163.265 19.8169C162.863 19.8169 162.511 19.8672 162.209 19.9678C161.915 20.0611 161.663 20.194 161.455 20.3664C161.254 20.5388 161.103 20.747 161.002 20.9912C160.902 21.2283 160.852 21.4904 160.852 21.7777C160.852 22.144 160.952 22.4493 161.153 22.6935C161.361 22.9377 161.634 23.146 161.972 23.3183C162.31 23.4907 162.694 23.6451 163.125 23.7816C163.556 23.9181 163.994 24.0653 164.439 24.2233C164.892 24.3741 165.333 24.5537 165.764 24.762C166.195 24.9631 166.579 25.2217 166.917 25.5377C167.255 25.8465 167.524 26.2272 167.725 26.6797C167.933 27.1322 168.037 27.6816 168.037 28.328C168.037 29.0319 167.915 29.6927 167.671 30.3104C167.434 30.9209 167.082 31.456 166.615 31.9156C166.156 32.3681 165.592 32.7272 164.924 32.993C164.256 33.2515 163.491 33.3808 162.629 33.3808C162.134 33.3808 161.645 33.3306 161.164 33.23C160.683 33.1366 160.219 33.0002 159.774 32.8206C159.336 32.641 158.923 32.4256 158.535 32.1742C158.155 31.9228 157.813 31.6427 157.512 31.3339L158.352 29.9441C158.431 29.8435 158.524 29.7609 158.632 29.6963C158.747 29.6244 158.873 29.5885 159.009 29.5885C159.189 29.5885 159.383 29.664 159.591 29.8148C159.799 29.9584 160.044 30.12 160.324 30.2996C160.611 30.4792 160.945 30.6443 161.326 30.7952C161.713 30.9388 162.177 31.0106 162.715 31.0106C163.541 31.0106 164.181 30.8167 164.633 30.4289C165.086 30.0338 165.312 29.47 165.312 28.7374C165.312 28.328 165.208 27.9941 164.999 27.7355C164.798 27.4769 164.529 27.2615 164.191 27.0891C163.854 26.9095 163.469 26.7587 163.039 26.6366C162.608 26.5145 162.169 26.3816 161.724 26.238C161.279 26.0943 160.841 25.9219 160.41 25.7208C159.979 25.5197 159.595 25.2576 159.257 24.9344C158.919 24.6112 158.647 24.2089 158.438 23.7277C158.237 23.2393 158.137 22.6396 158.137 21.9285C158.137 21.3611 158.248 20.8081 158.471 20.2694C158.7 19.7307 159.031 19.2531 159.462 18.8365C159.9 18.42 160.435 18.086 161.067 17.8346C161.699 17.5832 162.421 17.4575 163.232 17.4575C164.152 17.4575 164.999 17.6012 165.775 17.8885C166.551 18.1758 167.212 18.578 167.757 19.0951L167.046 20.4633Z" fill="#5C7795"/>
    <path d="M174.321 27.7247V33.2085H171.423V17.6299H176.498C177.539 17.6299 178.44 17.752 179.202 17.9962C179.963 18.2404 180.592 18.5816 181.087 19.0197C181.583 19.4578 181.949 19.9821 182.186 20.5926C182.423 21.2031 182.542 21.8711 182.542 22.5965C182.542 23.3507 182.416 24.0438 182.164 24.6758C181.913 25.3007 181.536 25.8393 181.033 26.2918C180.53 26.7443 179.902 27.0963 179.148 27.3476C178.394 27.599 177.51 27.7247 176.498 27.7247H174.321ZM174.321 25.4623H176.498C177.029 25.4623 177.492 25.3976 177.887 25.2683C178.282 25.1319 178.609 24.9415 178.868 24.6973C179.126 24.446 179.32 24.1443 179.45 23.7924C179.579 23.4332 179.643 23.0346 179.643 22.5965C179.643 22.1799 179.579 21.8029 179.45 21.4653C179.32 21.1277 179.126 20.8404 178.868 20.6034C178.609 20.3664 178.282 20.1868 177.887 20.0647C177.492 19.9354 177.029 19.8708 176.498 19.8708H174.321V25.4623Z" fill="#5C7795"/>
    <path d="M189.135 33.2085H186.226V17.6299H189.135V33.2085Z" fill="#5C7795"/>
    <path d="M195.243 17.6299C195.372 17.6299 195.48 17.6371 195.566 17.6514C195.652 17.6586 195.727 17.6802 195.792 17.7161C195.864 17.7448 195.932 17.7915 195.997 17.8561C196.061 17.9136 196.133 17.9926 196.212 18.0932L204.389 28.5112C204.361 28.2598 204.339 28.0156 204.325 27.7786C204.317 27.5344 204.314 27.3081 204.314 27.0998V17.6299H206.867V33.2085H205.37C205.14 33.2085 204.95 33.1725 204.799 33.1007C204.648 33.0289 204.501 32.8996 204.357 32.7129L196.212 22.3379C196.234 22.5678 196.248 22.7976 196.255 23.0274C196.27 23.2501 196.277 23.4548 196.277 23.6415V33.2085H193.723V17.6299H195.243Z" fill="#5C7795"/>
    <path d="M220.913 17.6299V19.9354H214.007V24.2556H219.448V26.4858H214.007V30.8921H220.913V33.2085H211.087V17.6299H220.913Z" fill="#5C7795"/>
    <path d="M55.565 43.9752V44.5934H50.1472V48.9203H54.8378V49.5384H50.1472V54.2653H49.3982V43.9752H55.565Z" fill="#999999"/>
    <path d="M65.5009 54.2653H64.9264C64.8585 54.2653 64.8028 54.2484 64.7591 54.2144C64.7155 54.1756 64.6816 54.1272 64.6573 54.069L63.4429 51.0801H58.3887L57.1816 54.069C57.1622 54.1223 57.1282 54.1684 57.0797 54.2072C57.0313 54.2459 56.9731 54.2653 56.9052 54.2653H56.338L60.5486 43.9752H61.2903L65.5009 54.2653ZM58.6142 50.5274H63.2247L61.1231 45.3279C61.0891 45.2454 61.0552 45.1533 61.0212 45.0515C60.9873 44.9449 60.9534 44.8334 60.9194 44.717C60.8855 44.8334 60.8516 44.9449 60.8176 45.0515C60.7837 45.1533 60.7498 45.2479 60.7158 45.3351L58.6142 50.5274Z" fill="#999999"/>
    <path d="M72.948 51.2692C73.0207 51.405 73.0838 51.5504 73.1371 51.7055C73.1662 51.628 73.1953 51.5528 73.2244 51.4801C73.2583 51.4025 73.2947 51.3298 73.3334 51.2619L77.3768 44.1134C77.4155 44.0504 77.4543 44.0116 77.4931 43.9971C77.5319 43.9825 77.5852 43.9752 77.6531 43.9752H78.1694V54.2653H77.5149V45.4951C77.5149 45.3691 77.5222 45.2357 77.5367 45.0952L73.4862 52.2873C73.4183 52.4134 73.3213 52.4764 73.1953 52.4764H73.0789C72.9577 52.4764 72.8608 52.4134 72.788 52.2873L68.6284 45.0879C68.6429 45.2285 68.6502 45.3642 68.6502 45.4951V54.2653H68.003V43.9752H68.512C68.5799 43.9752 68.6332 43.9825 68.672 43.9971C68.7156 44.0116 68.7568 44.0504 68.7956 44.1134L72.948 51.2692Z" fill="#999999"/>
    <path d="M83.1171 54.2653H82.3681V43.9752H83.1171V54.2653Z" fill="#999999"/>
    <path d="M88.0597 53.6327H92.9393V54.2653H87.3179V43.9752H88.0597V53.6327Z" fill="#999999"/>
    <path d="M97.4198 50.0184V54.2653H96.6708V50.0184L92.8675 43.9752H93.5147C93.5826 43.9752 93.6359 43.9922 93.6747 44.0261C93.7183 44.0552 93.7595 44.0989 93.7983 44.157L96.7435 48.8839C96.8114 48.9954 96.8696 49.1045 96.918 49.2112C96.9665 49.313 97.0102 49.4172 97.0489 49.5239C97.0877 49.4172 97.1314 49.313 97.1798 49.2112C97.2283 49.1045 97.2865 48.9954 97.3544 48.8839L100.292 44.157C100.321 44.1037 100.358 44.0601 100.401 44.0261C100.445 43.9922 100.501 43.9752 100.569 43.9752H101.223L97.4198 50.0184Z" fill="#999999"/>
    <path d="M114.967 52.5346C115.016 52.5346 115.057 52.5515 115.091 52.5855L115.382 52.8982C115.168 53.126 114.936 53.3321 114.683 53.5163C114.431 53.6957 114.155 53.8508 113.854 53.9817C113.559 54.1078 113.231 54.2047 112.873 54.2726C112.519 54.3453 112.128 54.3817 111.702 54.3817C110.989 54.3817 110.335 54.2581 109.738 54.0108C109.147 53.7587 108.638 53.4048 108.211 52.9491C107.789 52.4885 107.46 51.9334 107.222 51.2838C106.985 50.6341 106.866 49.9117 106.866 49.1166C106.866 48.3361 106.987 47.6234 107.229 46.9786C107.477 46.3338 107.821 45.7812 108.262 45.3206C108.708 44.8552 109.239 44.4964 109.855 44.2443C110.475 43.9874 111.159 43.8589 111.905 43.8589C112.279 43.8589 112.621 43.888 112.931 43.9462C113.241 43.9995 113.53 44.0795 113.796 44.1861C114.068 44.2879 114.322 44.4164 114.56 44.5716C114.797 44.7267 115.03 44.9061 115.258 45.1097L115.033 45.4369C114.994 45.4951 114.933 45.5242 114.851 45.5242C114.807 45.5242 114.751 45.5 114.683 45.4515C114.616 45.3982 114.528 45.3351 114.422 45.2624C114.32 45.1848 114.194 45.1024 114.043 45.0152C113.898 44.923 113.724 44.8406 113.52 44.7679C113.316 44.6903 113.081 44.6273 112.815 44.5788C112.548 44.5255 112.245 44.4988 111.905 44.4988C111.28 44.4988 110.706 44.6079 110.182 44.8261C109.658 45.0394 109.208 45.3473 108.829 45.7496C108.451 46.1472 108.155 46.632 107.942 47.2041C107.734 47.7713 107.629 48.4088 107.629 49.1166C107.629 49.8439 107.734 50.4935 107.942 51.0656C108.151 51.6377 108.439 52.1225 108.808 52.52C109.176 52.9127 109.61 53.2157 110.109 53.429C110.613 53.6375 111.159 53.7417 111.745 53.7417C112.114 53.7417 112.441 53.7175 112.727 53.669C113.018 53.6205 113.285 53.5478 113.527 53.4509C113.77 53.3539 113.995 53.2351 114.203 53.0945C114.412 52.9539 114.618 52.7891 114.822 52.6C114.846 52.5806 114.868 52.5661 114.887 52.5564C114.911 52.5418 114.938 52.5346 114.967 52.5346Z" fill="#999999"/>
    <path d="M126.532 54.2653H125.783V49.3348H119.339V54.2653H118.59V43.9752H119.339V48.7749H125.783V43.9752H126.532V54.2653Z" fill="#999999"/>
    <path d="M131.475 54.2653H130.726V43.9752H131.475V54.2653Z" fill="#999999"/>
    <path d="M136.635 49.6112V54.2653H135.894V43.9752H138.519C139.707 43.9752 140.594 44.2055 141.18 44.6661C141.767 45.1218 142.06 45.7933 142.06 46.6805C142.06 47.0732 141.992 47.4319 141.857 47.7568C141.721 48.0816 141.525 48.3676 141.268 48.6149C141.016 48.8573 140.71 49.0585 140.351 49.2185C139.993 49.3736 139.588 49.4754 139.137 49.5239C139.253 49.5966 139.358 49.6936 139.45 49.8148L142.991 54.2653H142.344C142.266 54.2653 142.199 54.2508 142.14 54.2217C142.087 54.1926 142.034 54.1441 141.98 54.0763L138.686 49.902C138.604 49.7954 138.514 49.7202 138.417 49.6766C138.325 49.633 138.179 49.6112 137.981 49.6112H136.635ZM136.635 49.0585H138.424C138.88 49.0585 139.287 49.0051 139.646 48.8985C140.01 48.787 140.315 48.6294 140.562 48.4258C140.814 48.2222 141.006 47.9773 141.137 47.6913C141.268 47.4053 141.333 47.0829 141.333 46.7241C141.333 45.992 141.093 45.4491 140.613 45.0952C140.133 44.7412 139.435 44.5643 138.519 44.5643H136.635V49.0585Z" fill="#999999"/>
    <path d="M154.588 49.1166C154.588 49.9117 154.47 50.6341 154.232 51.2838C153.995 51.9285 153.66 52.4812 153.229 52.9418C152.797 53.3975 152.281 53.7514 151.68 54.0035C151.078 54.2508 150.412 54.3744 149.68 54.3744C148.957 54.3744 148.296 54.2508 147.694 54.0035C147.093 53.7514 146.577 53.3975 146.145 52.9418C145.714 52.4812 145.377 51.9285 145.135 51.2838C144.897 50.6341 144.778 49.9117 144.778 49.1166C144.778 48.3264 144.897 47.6089 145.135 46.9641C145.377 46.3144 145.714 45.7618 146.145 45.306C146.577 44.8455 147.093 44.4891 147.694 44.237C148.296 43.9849 148.957 43.8589 149.68 43.8589C150.412 43.8589 151.078 43.9849 151.68 44.237C152.281 44.4843 152.797 44.8382 153.229 45.2988C153.66 45.7593 153.995 46.3144 154.232 46.9641C154.47 47.6089 154.588 48.3264 154.588 49.1166ZM153.818 49.1166C153.818 48.3991 153.718 47.7543 153.519 47.1823C153.321 46.6102 153.039 46.1254 152.676 45.7278C152.317 45.3303 151.883 45.0273 151.374 44.8188C150.865 44.6055 150.3 44.4988 149.68 44.4988C149.069 44.4988 148.509 44.6055 148 44.8188C147.496 45.0273 147.059 45.3303 146.691 45.7278C146.327 46.1254 146.044 46.6102 145.84 47.1823C145.641 47.7543 145.542 48.3991 145.542 49.1166C145.542 49.839 145.641 50.4862 145.84 51.0583C146.044 51.6255 146.327 52.1079 146.691 52.5055C147.059 52.903 147.496 53.206 148 53.4145C148.509 53.623 149.069 53.7272 149.68 53.7272C150.3 53.7272 150.865 53.623 151.374 53.4145C151.883 53.206 152.317 52.903 152.676 52.5055C153.039 52.1079 153.321 51.6255 153.519 51.0583C153.718 50.4862 153.818 49.839 153.818 49.1166Z" fill="#999999"/>
    <path d="M158.848 50.1202V54.2653H158.106V43.9752H160.76C161.968 43.9752 162.877 44.2395 163.487 44.7679C164.103 45.2963 164.411 46.0502 164.411 47.0295C164.411 47.4804 164.326 47.8949 164.156 48.2731C163.992 48.6512 163.752 48.9785 163.436 49.2548C163.121 49.5263 162.738 49.7396 162.287 49.8948C161.837 50.0451 161.328 50.1202 160.76 50.1202H158.848ZM158.848 49.5239H160.76C161.216 49.5239 161.623 49.4609 161.982 49.3348C162.341 49.2088 162.644 49.0342 162.891 48.8112C163.143 48.5882 163.335 48.3264 163.466 48.0258C163.601 47.7204 163.669 47.3883 163.669 47.0295C163.669 46.2393 163.424 45.6309 162.935 45.2042C162.45 44.7776 161.725 44.5643 160.76 44.5643H158.848V49.5239Z" fill="#999999"/>
    <path d="M168.356 49.6112V54.2653H167.614V43.9752H170.24C171.427 43.9752 172.315 44.2055 172.901 44.6661C173.488 45.1218 173.781 45.7933 173.781 46.6805C173.781 47.0732 173.713 47.4319 173.577 47.7568C173.442 48.0816 173.245 48.3676 172.988 48.6149C172.736 48.8573 172.431 49.0585 172.072 49.2185C171.713 49.3736 171.309 49.4754 170.858 49.5239C170.974 49.5966 171.078 49.6936 171.17 49.8148L174.712 54.2653H174.065C173.987 54.2653 173.919 54.2508 173.861 54.2217C173.808 54.1926 173.754 54.1441 173.701 54.0763L170.407 49.902C170.324 49.7954 170.235 49.7202 170.138 49.6766C170.046 49.633 169.9 49.6112 169.701 49.6112H168.356ZM168.356 49.0585H170.145C170.601 49.0585 171.008 49.0051 171.367 48.8985C171.73 48.787 172.036 48.6294 172.283 48.4258C172.535 48.2222 172.727 47.9773 172.858 47.6913C172.988 47.4053 173.054 47.0829 173.054 46.7241C173.054 45.992 172.814 45.4491 172.334 45.0952C171.854 44.7412 171.156 44.5643 170.24 44.5643H168.356V49.0585Z" fill="#999999"/>
    <path d="M185.189 54.2653H184.615C184.547 54.2653 184.491 54.2484 184.447 54.2144C184.404 54.1756 184.37 54.1272 184.346 54.069L183.131 51.0801H178.077L176.87 54.069C176.85 54.1223 176.816 54.1684 176.768 54.2072C176.719 54.2459 176.661 54.2653 176.593 54.2653H176.026L180.237 43.9752H180.978L185.189 54.2653ZM178.302 50.5274H182.913L180.811 45.3279C180.777 45.2454 180.743 45.1533 180.709 45.0515C180.675 44.9449 180.642 44.8334 180.608 44.717C180.574 44.8334 180.54 44.9449 180.506 45.0515C180.472 45.1533 180.438 45.2479 180.404 45.3351L178.302 50.5274Z" fill="#999999"/>
    <path d="M194.954 52.5346C195.002 52.5346 195.044 52.5515 195.077 52.5855L195.368 52.8982C195.155 53.126 194.922 53.3321 194.67 53.5163C194.418 53.6957 194.142 53.8508 193.841 53.9817C193.545 54.1078 193.218 54.2047 192.859 54.2726C192.506 54.3453 192.115 54.3817 191.689 54.3817C190.976 54.3817 190.322 54.2581 189.725 54.0108C189.134 53.7587 188.625 53.4048 188.198 52.9491C187.776 52.4885 187.447 51.9334 187.209 51.2838C186.971 50.6341 186.853 49.9117 186.853 49.1166C186.853 48.3361 186.974 47.6234 187.216 46.9786C187.464 46.3338 187.808 45.7812 188.249 45.3206C188.695 44.8552 189.226 44.4964 189.842 44.2443C190.462 43.9874 191.146 43.8589 191.892 43.8589C192.266 43.8589 192.607 43.888 192.918 43.9462C193.228 43.9995 193.516 44.0795 193.783 44.1861C194.055 44.2879 194.309 44.4164 194.547 44.5716C194.784 44.7267 195.017 44.9061 195.245 45.1097L195.019 45.4369C194.981 45.4951 194.92 45.5242 194.838 45.5242C194.794 45.5242 194.738 45.5 194.67 45.4515C194.602 45.3982 194.515 45.3351 194.408 45.2624C194.307 45.1848 194.181 45.1024 194.03 45.0152C193.885 44.923 193.71 44.8406 193.507 44.7679C193.303 44.6903 193.068 44.6273 192.801 44.5788C192.535 44.5255 192.232 44.4988 191.892 44.4988C191.267 44.4988 190.692 44.6079 190.169 44.8261C189.645 45.0394 189.194 45.3473 188.816 45.7496C188.438 46.1472 188.142 46.632 187.929 47.2041C187.721 47.7713 187.616 48.4088 187.616 49.1166C187.616 49.8439 187.721 50.4935 187.929 51.0656C188.137 51.6377 188.426 52.1225 188.794 52.52C189.163 52.9127 189.597 53.2157 190.096 53.429C190.6 53.6375 191.146 53.7417 191.732 53.7417C192.101 53.7417 192.428 53.7175 192.714 53.669C193.005 53.6205 193.272 53.5478 193.514 53.4509C193.756 53.3539 193.982 53.2351 194.19 53.0945C194.399 52.9539 194.605 52.7891 194.808 52.6C194.833 52.5806 194.854 52.5661 194.874 52.5564C194.898 52.5418 194.925 52.5346 194.954 52.5346Z" fill="#999999"/>
    <path d="M205.297 43.9752V44.6079H201.682V54.2653H200.941V44.6079H197.305V43.9752H205.297Z" fill="#999999"/>
    <path d="M208.976 54.2653H208.227V43.9752H208.976V54.2653Z" fill="#999999"/>
    <path d="M220.652 52.5346C220.701 52.5346 220.742 52.5515 220.776 52.5855L221.067 52.8982C220.854 53.126 220.621 53.3321 220.369 53.5163C220.117 53.6957 219.84 53.8508 219.54 53.9817C219.244 54.1078 218.917 54.2047 218.558 54.2726C218.204 54.3453 217.814 54.3817 217.387 54.3817C216.675 54.3817 216.02 54.2581 215.424 54.0108C214.832 53.7587 214.323 53.4048 213.897 52.9491C213.475 52.4885 213.145 51.9334 212.908 51.2838C212.67 50.6341 212.551 49.9117 212.551 49.1166C212.551 48.3361 212.672 47.6234 212.915 46.9786C213.162 46.3338 213.506 45.7812 213.947 45.3206C214.393 44.8552 214.924 44.4964 215.54 44.2443C216.161 43.9874 216.844 43.8589 217.591 43.8589C217.964 43.8589 218.306 43.888 218.616 43.9462C218.926 43.9995 219.215 44.0795 219.482 44.1861C219.753 44.2879 220.008 44.4164 220.245 44.5716C220.483 44.7267 220.715 44.9061 220.943 45.1097L220.718 45.4369C220.679 45.4951 220.618 45.5242 220.536 45.5242C220.492 45.5242 220.437 45.5 220.369 45.4515C220.301 45.3982 220.214 45.3351 220.107 45.2624C220.005 45.1848 219.879 45.1024 219.729 45.0152C219.583 44.923 219.409 44.8406 219.205 44.7679C219.002 44.6903 218.766 44.6273 218.5 44.5788C218.233 44.5255 217.93 44.4988 217.591 44.4988C216.965 44.4988 216.391 44.6079 215.867 44.8261C215.344 45.0394 214.893 45.3473 214.515 45.7496C214.137 46.1472 213.841 46.632 213.627 47.2041C213.419 47.7713 213.315 48.4088 213.315 49.1166C213.315 49.8439 213.419 50.4935 213.627 51.0656C213.836 51.6377 214.124 52.1225 214.493 52.52C214.861 52.9127 215.295 53.2157 215.795 53.429C216.299 53.6375 216.844 53.7417 217.431 53.7417C217.799 53.7417 218.127 53.7175 218.413 53.669C218.703 53.6205 218.97 53.5478 219.212 53.4509C219.455 53.3539 219.68 53.2351 219.889 53.0945C220.097 52.9539 220.303 52.7891 220.507 52.6C220.531 52.5806 220.553 52.5661 220.572 52.5564C220.597 52.5418 220.623 52.5346 220.652 52.5346Z" fill="#999999"/>
    <path d="M27.7836 41.888C27.7836 41.888 29.0796 43.7256 30.1304 46.6296C31.0944 45.3001 31.0243 42.9726 30.9543 41.8012C30.8842 40.6298 30.2733 37.7244 29.3879 35.975C28.3066 33.7943 26.8098 31.8452 24.9815 30.2369C22.6697 28.1558 19.6055 26.0733 18.5897 25.3218C17.5739 24.5702 14.9987 22.6977 13.6509 20.9832C12.3031 19.2688 11.8645 18.7258 10.8838 16.2416C9.90301 13.7575 10.3051 10.2068 10.5335 9.17399C10.7619 8.14114 11.7945 5.24691 13.4926 3.85578C15.052 2.5794 16.6983 1.52976 19.5705 1.51156C22.4427 1.49337 24.8133 2.33309 27.048 3.80399C28.8246 4.9726 29.612 5.58 30.0085 5.92008C30.3476 6.20979 30.7791 6.70802 31.1644 6.74301C31.5497 6.778 31.7249 6.37493 31.4264 5.8683C31.128 5.36167 29.7283 4.03072 27.8018 2.80613C25.8753 1.58154 24.1058 0.706833 21.2336 0.182009C18.3613 -0.342815 14.7718 0.321962 12.7052 1.47657C10.6386 2.63119 8.67707 4.11889 7.27599 6.53308C5.8749 8.94727 5.59469 11.6582 5.54145 13.1109C5.48821 14.5636 5.7348 18.201 6.99577 20.965C7.57301 19.4256 7.52117 19.5305 7.66128 19.1988C7.80139 18.8671 8.08161 18.7608 8.39685 19.1289C8.71209 19.4969 9.07918 19.8104 9.00912 20.3003C8.93907 20.7901 8.48372 22.1896 8.48372 22.1896C8.48372 22.1896 9.79793 23.9922 9.93804 24.2539C10.0781 24.5156 10.095 24.7969 9.7629 25.3568L10.5853 26.2133C10.5853 26.2133 10.9356 24.0272 10.9889 23.7473C11.0421 23.4674 11.2691 23.0126 11.7763 23.4492C12.2835 23.8859 12.6001 24.0972 12.5469 24.8487C12.4936 25.6003 12.425 26.4582 12.425 26.4582C12.425 26.4582 14.088 27.8927 14.2982 28.1376C14.5084 28.3825 14.5784 28.7324 14.1931 29.3804L14.9987 30.132C15.1038 29.819 15.1803 29.4972 15.2271 29.1705C15.2621 28.7856 15.2271 27.736 15.2972 27.4029C15.3672 27.0698 15.6124 26.8613 16.1546 27.2461C16.7431 27.666 16.9785 27.9809 16.9434 28.8724C16.9028 29.922 16.9084 29.922 16.9084 29.922C16.9084 29.922 18.5547 31.2166 18.8167 31.4265C19.0787 31.6365 19.4472 31.8464 19.2903 32.2662C19.1932 32.5207 19.0371 32.7485 18.8349 32.931L19.9376 33.7707C19.9376 33.7707 20.0258 31.9863 20.0258 31.6546C20.0258 31.1998 20.1827 30.6918 21.0234 31.2516C21.7001 31.7022 21.6721 32.2662 21.6721 32.9842C21.6721 33.7022 21.6539 34.0157 21.6539 34.0157C21.6539 34.0157 23.2133 35.1703 23.4753 35.3452C23.7373 35.5202 24.0357 35.8001 24.0007 36.115C23.9657 36.4298 23.5453 36.9029 23.5453 36.9029L24.7363 37.8994C24.7363 37.8994 24.9997 36.3599 25.0697 36.0282C25.1398 35.6965 25.455 35.4684 25.8922 35.8532C26.3293 36.2381 26.681 36.448 26.5577 37.2696C26.4344 38.0911 26.2606 38.8622 26.2606 38.8622C26.2606 38.8622 27.0663 39.6488 27.4684 40.0868C27.8705 40.5249 28.2222 40.7866 28.2039 41.1365C28.193 41.2848 28.1498 41.4289 28.0771 41.5588C28.0045 41.6886 27.9043 41.801 27.7836 41.888Z" fill="#37495B"/>
    <path d="M3.57995 23.4841C3.57995 23.4841 2.58238 21.6997 1.46152 19.0938C0.585843 20.1434 0.462548 22.7493 0.550816 23.9389C0.639084 25.1285 1.11125 27.5959 2.38903 30.1318C3.66682 32.6678 5.4546 34.3836 6.15514 35.0484C6.85568 35.7132 8.71212 37.3044 9.81477 38.1092C10.9174 38.9139 13.0204 40.4534 13.686 40.9432C14.745 41.7144 15.7457 42.5625 16.6801 43.4806C17.7141 44.5302 18.87 45.7366 19.5523 46.9612C20.2346 48.1858 21.0234 49.6203 21.2168 51.9995C21.4101 54.3787 21.0767 56.3381 20.7614 57.3877C20.4462 58.4374 19.7106 60.135 18.5715 61.3596C17.4325 62.5842 16.4881 63.144 14.7886 63.7388C13.0891 64.3336 10.2883 64.1236 9.44769 63.9487C8.60704 63.7738 6.71558 63.144 5.41958 62.3742C4.12357 61.6045 2.26714 60.3967 1.68849 59.9251C1.10985 59.4534 0.585843 58.8222 0.235572 58.9272C-0.114698 59.0322 -0.0978851 59.592 0.445735 60.2567C0.93191 60.8515 2.5992 62.2511 3.80833 62.9508C5.01746 63.6506 6.73239 64.6303 8.27358 65.0683C9.78968 65.4626 11.3488 65.668 12.9154 65.6799C13.9311 65.6631 16.6983 65.4 19.0269 64.1586C21.3555 62.9173 22.4946 61.7095 23.6336 60.2749C24.7727 58.8404 25.2351 57.5123 25.6204 55.9028C26.0057 54.2933 26.0323 52.4726 26.0323 50.8645C26.0323 49.0269 25.455 46.9976 25.2267 46.2978C24.9983 45.5981 24.5443 44.6016 24.5443 44.6016C24.5443 44.6016 24.0189 44.8465 23.5524 44.3119C23.2007 43.9088 21.9874 42.3889 21.9874 42.3889C21.9874 42.3889 20.4952 42.5135 20.201 42.4673C19.7106 42.3889 19.5004 42.0992 19.237 41.6976C18.9736 41.2959 18.7649 40.8229 19.7106 40.8047C20.6563 40.7865 21.3919 40.7697 21.9523 40.5598L21.2868 39.6683C21.2868 39.6683 21.0935 40.0531 20.7782 40.1049C20.463 40.1567 20.1477 40.0531 19.3772 39.3701C18.6066 38.6872 18.0994 38.2687 18.0994 38.2687C18.0994 38.2687 16.9603 38.5836 16.5582 38.6354C16.1561 38.6872 15.8156 38.5682 15.3673 38.1987C14.8587 37.7789 14.6667 37.2709 15.3673 37.1659C16.0678 37.0609 16.9953 36.851 17.6608 36.5361L16.7151 35.7146C16.7151 35.7146 16.4531 36.0994 16.1028 36.1512C15.7526 36.203 15.4541 36.1344 14.7368 35.4697C14.0194 34.8049 13.4576 34.385 13.4576 34.385C13.4576 34.385 12.2484 34.7447 11.8646 34.8049C11.3041 34.8917 11.0407 34.6467 10.6204 34.2801C10.2001 33.9134 10.0249 33.4571 10.7787 33.3172C11.4315 33.2095 12.0711 33.0336 12.687 32.7924L11.6894 31.9358C11.6894 31.9358 11.3265 32.3389 11.0589 32.3907C10.6036 32.4775 10.3584 32.3557 9.63963 31.5328C9.32724 31.159 8.9942 30.803 8.64206 30.4663C8.64206 30.4663 7.29282 30.6413 6.83747 30.6231C6.38212 30.6049 6.1019 30.4481 5.69979 29.9933C5.29768 29.5384 5.17439 29.0836 5.90995 28.9968C6.64552 28.9101 7.88828 28.7323 7.88828 28.7323L6.47039 27.4378C6.47039 27.4378 6.08509 27.7177 5.76985 27.7177C5.33131 27.7177 5.13936 27.4909 4.66579 26.668C4.19223 25.8451 3.7733 25.1285 3.7733 25.1285C3.7733 25.1285 2.10882 25.2335 1.84682 25.1117C1.58481 24.99 1.33822 24.5519 1.12806 24.167C0.917899 23.7822 1.00477 23.3763 1.70671 23.4141C2.43947 23.4533 3.57995 23.4841 3.57995 23.4841Z" fill="#557898"/>
  </symbol>

  <symbol id="pinterest" width="30" height="30" viewBox="0 0 30 30" fill="none">
    <path d="M16.0956 19.9439C14.9697 19.8568 14.4966 19.2985 13.6136 18.7625C13.1283 21.3088 12.5352 23.7497 10.7785 25.0248C10.2355 21.1763 11.5744 18.2857 12.1962 15.2174C11.1363 13.4334 12.3236 9.8424 14.559 10.7273C17.3102 11.8152 12.1771 17.361 15.6231 18.0536C19.2207 18.7768 20.6894 11.8112 18.4582 9.54558C15.2347 6.27452 9.0751 9.47125 9.83254 14.1539C10.0171 15.2987 11.2001 15.6462 10.3051 17.2258C8.24201 16.7689 7.62661 15.1418 7.70572 12.9725C7.83342 9.4216 10.8963 6.93532 13.9686 6.59125C17.854 6.15638 21.5007 8.01797 22.004 11.6727C22.5703 15.7975 20.25 20.2646 16.0956 19.9439Z" fill="#056CDE"/>
  </symbol>

  <symbol id="instagram" width="30" height="30" viewBox="0 0 30 30" fill="none">
    <path fill-rule="evenodd" clip-rule="evenodd" d="M15 7C12.8273 7 12.5549 7.0092 11.7016 7.04813C10.8501 7.08697 10.2686 7.22223 9.7597 7.42C9.23363 7.62443 8.7875 7.89797 8.3427 8.3427C7.89797 8.7875 7.62443 9.23363 7.42 9.7597C7.22223 10.2686 7.08697 10.8501 7.04813 11.7016C7.0092 12.5549 7 12.8273 7 15C7 17.1727 7.0092 17.4451 7.04813 18.2984C7.08697 19.1499 7.22223 19.7314 7.42 20.2403C7.62443 20.7664 7.89797 21.2125 8.3427 21.6573C8.7875 22.102 9.23363 22.3756 9.7597 22.58C10.2686 22.7778 10.8501 22.913 11.7016 22.9519C12.5549 22.9908 12.8273 23 15 23C17.1727 23 17.4451 22.9908 18.2984 22.9519C19.1499 22.913 19.7314 22.7778 20.2403 22.58C20.7664 22.3756 21.2125 22.102 21.6573 21.6573C22.102 21.2125 22.3756 20.7664 22.58 20.2403C22.7778 19.7314 22.913 19.1499 22.9519 18.2984C22.9908 17.4451 23 17.1727 23 15C23 12.8273 22.9908 12.5549 22.9519 11.7016C22.913 10.8501 22.7778 10.2686 22.58 9.7597C22.3756 9.23363 22.102 8.7875 21.6573 8.3427C21.2125 7.89797 20.7664 7.62443 20.2403 7.42C19.7314 7.22223 19.1499 7.08697 18.2984 7.04813C17.4451 7.0092 17.1727 7 15 7ZM15 8.44143C17.1361 8.44143 17.3891 8.4496 18.2327 8.4881C19.0127 8.52367 19.4363 8.65397 19.7182 8.76353C20.0916 8.90867 20.3581 9.08203 20.638 9.362C20.918 9.6419 21.0913 9.9084 21.2365 10.2818C21.346 10.5637 21.4763 10.9873 21.5119 11.7673C21.5504 12.6109 21.5586 12.8639 21.5586 15C21.5586 17.1361 21.5504 17.3891 21.5119 18.2327C21.4763 19.0127 21.346 19.4363 21.2365 19.7182C21.0913 20.0916 20.918 20.3581 20.638 20.638C20.3581 20.918 20.0916 21.0913 19.7182 21.2365C19.4363 21.346 19.0127 21.4763 18.2327 21.5119C17.3892 21.5504 17.1363 21.5586 15 21.5586C12.8637 21.5586 12.6108 21.5504 11.7673 21.5119C10.9873 21.4763 10.5637 21.346 10.2818 21.2365C9.9084 21.0913 9.64193 20.918 9.36197 20.638C9.08207 20.3581 8.90867 20.0916 8.76353 19.7182C8.65397 19.4363 8.52367 19.0127 8.4881 18.2327C8.4496 17.3891 8.44143 17.1361 8.44143 15C8.44143 12.8639 8.4496 12.6109 8.4881 11.7673C8.52367 10.9873 8.65397 10.5637 8.76353 10.2818C8.90867 9.9084 9.08203 9.6419 9.36197 9.362C9.64193 9.08203 9.9084 8.90867 10.2818 8.76353C10.5637 8.65397 10.9873 8.52367 11.7673 8.4881C12.6109 8.4496 12.8639 8.44143 15 8.44143ZM10.8919 15C10.8919 12.7311 12.7311 10.8919 15 10.8919C17.2689 10.8919 19.1081 12.7311 19.1081 15C19.1081 17.2689 17.2689 19.1081 15 19.1081C12.7311 19.1081 10.8919 17.2689 10.8919 15ZM15 17.6667C13.5272 17.6667 12.3333 16.4728 12.3333 15C12.3333 13.5272 13.5272 12.3333 15 12.3333C16.4728 12.3333 17.6667 13.5272 17.6667 15C17.6667 16.4728 16.4728 17.6667 15 17.6667ZM19.2704 11.6896C19.8006 11.6896 20.2304 11.2598 20.2304 10.7296C20.2304 10.1994 19.8006 9.76957 19.2704 9.76957C18.7402 9.76957 18.3104 10.1994 18.3104 10.7296C18.3104 11.2598 18.7402 11.6896 19.2704 11.6896Z" fill="#056CDE"/>
  </symbol>

  <symbol id="twitter" width="30" height="30" viewBox="0 0 30 30" fill="none">
    <path d="M24.8517 10.6694C24.2135 10.9524 23.5269 11.1438 22.8069 11.2293C23.542 10.7888 24.1062 10.0919 24.3725 9.26018C23.6846 9.66823 22.9224 9.96425 22.1119 10.1238C21.4625 9.43221 20.5373 9 19.5127 9C17.5471 9 15.9528 10.5942 15.9528 12.5599C15.9528 12.8389 15.9844 13.1105 16.0455 13.3712C13.0869 13.2228 10.4636 11.8057 8.7077 9.65124C8.40133 10.1769 8.22558 10.7888 8.22558 11.4412C8.22558 12.6759 8.85451 13.766 9.8092 14.4042C9.22593 14.3859 8.67664 14.2258 8.1969 13.9585C8.19664 13.9736 8.19664 13.9888 8.19664 14.0036C8.19664 15.7285 9.42425 17.1672 11.0525 17.494C10.7541 17.5758 10.4389 17.619 10.1148 17.619C9.88487 17.619 9.66212 17.597 9.44496 17.5556C9.89788 18.9696 11.2123 19.9988 12.7704 20.0278C11.5519 20.9827 10.0171 21.5517 8.34876 21.5517C8.06204 21.5517 7.77796 21.535 7.5 21.5018C9.0746 22.5122 10.9463 23.1013 12.9566 23.1013C19.5045 23.1013 23.0854 17.6769 23.0854 12.9722C23.0854 12.818 23.082 12.6642 23.0751 12.5119C23.7712 12.0101 24.3746 11.3833 24.8517 10.6694Z" fill="#056CDE"/>
  </symbol>

  <symbol id="facebook" width="30" height="30" viewBox="0 0 30 30" fill="none">
    <path d="M18.6374 15.4763H15.9799V25.2123H11.9535V15.4763H10.0386V12.0547H11.9535V9.84058C11.9535 8.25721 12.7057 5.77783 16.0157 5.77783L18.9982 5.79031V9.11155H16.8342C16.4793 9.11155 15.9802 9.28889 15.9802 10.0442V12.0579H18.9892L18.6374 15.4763Z" fill="#056CDE"/>
  </symbol>

  <symbol id="star" width="22" height="22" viewBox="0 0 22 22" fill="none">
    <path d="M8.05544 0.717388C8.36673 -0.178172 9.63327 -0.178173 9.94456 0.717388L11.3578 4.78304C11.4951 5.17811 11.8638 5.44598 12.282 5.4545L16.5853 5.5422C17.5333 5.56152 17.9247 6.76606 17.1691 7.33887L13.7392 9.93927C13.4059 10.192 13.265 10.6254 13.3862 11.0257L14.6326 15.1456C14.9071 16.0531 13.8825 16.7975 13.1042 16.256L9.57118 13.7975C9.22786 13.5586 8.77214 13.5586 8.42882 13.7975L4.89577 16.256C4.11753 16.7975 3.09288 16.0531 3.36743 15.1456L4.61385 11.0257C4.73496 10.6254 4.59414 10.192 4.26084 9.93927L0.830882 7.33887C0.0753496 6.76606 0.46673 5.56152 1.41465 5.5422L5.71803 5.4545C6.1362 5.44598 6.50489 5.17811 6.64222 4.78304L8.05544 0.717388Z" fill="#056CDE"/>
  </symbol>

  <symbol id="right-arrow" width="28" height="18" viewBox="0 0 28 18" fill="none">
    <path d="M27 9L27.7071 9.70711C27.8946 9.51957 28 9.26522 28 9C28 8.73478 27.8946 8.48043 27.7071 8.29289L27 9ZM1 8C0.447718 8 2.65501e-06 8.44771 2.60673e-06 9C2.55845e-06 9.55228 0.447718 10 1 10L1 8ZM19.7071 17.7071L27.7071 9.70711L26.2929 8.29289L18.2929 16.2929L19.7071 17.7071ZM27.7071 8.29289L19.7071 0.292894L18.2929 1.70711L26.2929 9.70711L27.7071 8.29289ZM27 8L1 8L1 10L27 10L27 8Z" fill="#056CDE"/>
  </symbol>

  <symbol id="left-arrow" width="28" height="18" viewBox="0 0 28 18" fill="none">
    <path d="M1 9L0.292893 8.29289C-0.0976311 8.68342 -0.0976311 9.31658 0.292893 9.70711L1 9ZM27 10C27.5523 10 28 9.55229 28 9C28 8.44772 27.5523 8 27 8V10ZM8.29289 0.292893L0.292893 8.29289L1.70711 9.70711L9.70711 1.70711L8.29289 0.292893ZM0.292893 9.70711L8.29289 17.7071L9.70711 16.2929L1.70711 8.29289L0.292893 9.70711ZM1 10H27V8H1V10Z" fill="#056CDE" fill-opacity="0.5"/>
  </symbol>

  <symbol id="down-arrow" width="17" height="8" viewBox="0 0 17 8" fill="none">
    <path d="M16 1L8.5 7L1 0.999999" stroke="#056CDE" stroke-width="2" stroke-linecap="round" stroke-linejoin="round"/>
  </symbol>

  <symbol id="up-arrow" width="17" height="8" viewBox="0 0 17 8" fill="none">
    <path d="M1 7L8.5 1L16 7" stroke="#056CDE" stroke-width="2" stroke-linecap="round" stroke-linejoin="round"/>
  </symbol>
  
  <symbol id="quotes" width="127" height="97" viewBox="0 0 127 97" fill="none">
    <path opacity="0.4" d="M29.6074 0C38.0913 0 45.1036 2.68722 50.6442 8.06167C56.1847 13.4361 58.955 20.4576 58.955 29.126C58.955 33.1135 58.4356 37.101 57.3967 41.0885C56.3579 45.076 54.107 51.0572 50.6442 59.0322L34.0225 97H3.11656L15.3231 54.6113C10.4751 52.3575 6.66599 49.0635 3.89571 44.7292C1.29857 40.2216 0 35.0206 0 29.126C0 20.4576 2.77028 13.4361 8.31084 8.06167C13.8514 2.68722 20.9502 0 29.6074 0ZM97.6523 0C106.136 0 113.149 2.68722 118.689 8.06167C124.23 13.4361 127 20.4576 127 29.126C127 33.1135 126.481 37.101 125.442 41.0885C124.403 45.076 122.152 51.0572 118.689 59.0322L102.067 97H71.1615L83.3681 54.6113C78.5201 52.3575 74.711 49.0635 71.9407 44.7292C69.3436 40.2216 68.045 35.0206 68.045 29.126C68.045 20.4576 70.8153 13.4361 76.3558 8.06167C81.8964 2.68722 88.9952 0 97.6523 0Z" fill="#D5E9FF"/>
  </symbol>

  <symbol id="geotag" width="40" height="60" viewBox="0 0 40 60" fill="none">
    <path d="M20 0C8.97221 0 0 8.97223 0 20C0 23.3106 0.827693 26.593 2.40117 29.5044L18.9063 59.3555C19.126 59.7534 19.5447 60 20 60C20.4553 60 20.874 59.7534 21.0937 59.3555L37.6049 29.4946C39.1723 26.593 40 23.3105 40 19.9999C40 8.97223 31.0278 0 20 0ZM20 30C14.4861 30 10.0001 25.5139 10.0001 20C10.0001 14.4861 14.4861 10.0001 20 10.0001C25.5139 10.0001 29.9999 14.4861 29.9999 20C29.9999 25.5139 25.5139 30 20 30Z" fill="#056CDE"/>
    <ellipse cx="20.0002" cy="19.9733" rx="10.3542" ry="10.1291" fill="#FFCE51"/>
  </symbol>

  <symbol id="like" width="70" height="70" viewBox="0 0 70 70" fill="none">
    <path d="M47.3047 0C46.5497 0 45.9375 0.612227 45.9375 1.36719V7.65625C45.9375 8.41121 46.5497 9.02344 47.3047 9.02344C48.0596 9.02344 48.6719 8.41121 48.6719 7.65625V1.36719C48.6719 0.612227 48.0596 0 47.3047 0Z" fill="#FFCE51"/>
    <path d="M15.8594 42.6562C15.1047 42.6562 14.4922 43.2688 14.4922 44.0234C14.4922 44.7781 15.1047 45.3906 15.8594 45.3906C16.6141 45.3906 17.2266 44.7781 17.2266 44.0234C17.2266 43.2688 16.6141 42.6562 15.8594 42.6562Z" fill="#FFCE51"/>
    <path d="M66.4453 39.9219C66.4453 36.9064 63.992 34.4531 60.9766 34.4531H50.7702C52.3503 30.4058 52.9899 25.642 52.8665 21.4014C52.843 20.5922 52.812 20.1242 52.77 19.8296C52.6993 16.8755 50.2737 14.4922 47.3047 14.4922C44.2892 14.4922 41.8359 16.9455 41.8359 19.9609V21.3281C41.8359 29.975 30.7325 34.8333 22.353 36.9167C21.7194 35.4683 20.2732 34.4531 18.5938 34.4531H4.92188C4.16691 34.4531 3.55469 35.0654 3.55469 35.8203V68.6328C3.55469 69.3878 4.16691 70 4.92188 70H18.5938C20.262 70 21.6999 68.9983 22.34 67.5652C23.0338 67.7432 23.6779 67.9114 24.2725 68.0667C29.046 69.3134 31.6755 70 38.0707 70H52.7734C55.7889 70 58.2422 67.5467 58.2422 64.5312C58.2422 63.4069 57.9008 62.361 57.3166 61.4909C59.4286 60.7522 60.9766 58.7342 60.9766 56.3281C60.9766 55.2079 60.6435 54.1585 60.0611 53.2845C62.1638 52.5446 63.7109 50.5312 63.7109 48.125C63.7109 47.0006 63.3696 45.9547 62.7854 45.0846C64.8974 44.346 66.4453 42.328 66.4453 39.9219ZM19.9609 65.8984C19.9609 66.6523 19.3476 67.2656 18.5938 67.2656H6.28906V37.1875H18.5938C19.3476 37.1875 19.9609 37.8008 19.9609 38.5547V65.8984ZM60.9766 42.6562C58.0441 42.6562 57.345 42.6562 54.1406 42.6562C53.3857 42.6562 52.7734 43.2685 52.7734 44.0234C52.7734 44.7784 53.3857 45.3906 54.1406 45.3906H58.2422C59.7499 45.3906 60.9766 46.6173 60.9766 48.125C60.9766 49.6352 59.7524 50.8594 58.2422 50.8594H51.4062C50.6513 50.8594 50.0391 51.4716 50.0391 52.2266C50.0391 52.9815 50.6513 53.5938 51.4062 53.5938H55.5078C56.9976 53.5938 58.2422 54.7839 58.2422 56.3281C58.2422 57.8383 57.018 59.0625 55.5078 59.0625C52.5753 59.0625 51.8763 59.0625 48.6719 59.0625C47.9169 59.0625 47.3047 59.6747 47.3047 60.4297C47.3047 61.1846 47.9169 61.7969 48.6719 61.7969H52.7734C54.2812 61.7969 55.5078 63.0235 55.5078 64.5312C55.5078 66.039 54.2812 67.2656 52.7734 67.2656H38.0707C32.0268 67.2656 29.6662 66.6492 24.9635 65.421C24.2745 65.2411 23.5189 65.0438 22.6953 64.8338V39.6519C32.5894 37.2951 44.5703 31.5425 44.5703 21.3281V19.9609C44.5703 18.4532 45.797 17.2266 47.3047 17.2266C48.8097 17.2266 50.0362 18.4513 50.0391 19.9567V19.9609C50.0391 20.5551 50.7806 27.8473 47.807 34.4531H43.2031C42.4482 34.4531 41.8359 35.0654 41.8359 35.8203C41.8359 36.5753 42.4482 37.1875 43.2031 37.1875C44.1578 37.1875 59.4182 37.1875 60.9766 37.1875C62.4843 37.1875 63.7109 38.4141 63.7109 39.9219C63.7109 41.4321 62.4868 42.6562 60.9766 42.6562Z" fill="#FFCE51"/>
    <path d="M15.8594 48.125C15.1044 48.125 14.4922 48.7372 14.4922 49.4922V60.4297C14.4922 61.1846 15.1044 61.7969 15.8594 61.7969C16.6143 61.7969 17.2266 61.1846 17.2266 60.4297V49.4922C17.2266 48.7372 16.6143 48.125 15.8594 48.125Z" fill="#FFCE51"/>
    <path d="M36.3672 17.2266H30.8984C30.1435 17.2266 29.5312 17.8388 29.5312 18.5938C29.5312 19.3487 30.1435 19.9609 30.8984 19.9609H36.3672C37.1221 19.9609 37.7344 19.3487 37.7344 18.5938C37.7344 17.8388 37.1221 17.2266 36.3672 17.2266Z" fill="#FFCE51"/>
    <path d="M63.7109 17.2266H58.2422C57.4872 17.2266 56.875 17.8388 56.875 18.5938C56.875 19.3487 57.4872 19.9609 58.2422 19.9609H63.7109C64.4659 19.9609 65.0781 19.3487 65.0781 18.5938C65.0781 17.8388 64.4659 17.2266 63.7109 17.2266Z" fill="#FFCE51"/>
    <path d="M59.8719 6.02653C59.3379 5.49278 58.4725 5.49278 57.9383 6.02653L54.072 9.8928C53.5382 10.4267 53.5382 11.2924 54.072 11.8264C54.6062 12.3603 55.4715 12.3602 56.0057 11.8264L59.8719 7.96015C60.4058 7.42626 60.4058 6.56056 59.8719 6.02653Z" fill="#FFCE51"/>
    <path d="M40.5373 9.8928L36.6711 6.02653C36.137 5.49278 35.2716 5.49278 34.7375 6.02653C34.2036 6.56042 34.2036 7.42612 34.7375 7.96015L38.6037 11.8264C39.138 12.3603 40.0033 12.3602 40.5373 11.8264C41.0712 11.2925 41.0712 10.4268 40.5373 9.8928Z" fill="#FFCE51"/>
  </symbol>

  <symbol id="spanish-flag" width="70" height="70" viewBox="0 0 70 70" fill="none">
    <path d="M50.8065 53.629V47.4193V24.8386H19.1936V47.4193V53.629V54.1935C19.1936 62.9096 26.2839 69.9999 35.0001 69.9999C43.7162 69.9999 50.8065 62.9096 50.8065 54.1935V53.629ZM30.4839 42.9031C30.4839 40.4125 32.5094 38.387 35.0001 38.387C37.4907 38.387 39.5162 40.4125 39.5162 42.9031C39.5162 45.3938 37.4907 47.4193 35.0001 47.4193C32.5094 47.4193 30.4839 45.3938 30.4839 42.9031ZM33.871 49.5746V53.6278C33.871 55.5517 32.9915 57.2735 31.613 58.4138V48.7606C32.2994 49.1591 33.0604 49.438 33.871 49.5746ZM21.4517 27.0967H33.871V36.2306C31.0405 36.7081 28.8062 38.9436 28.3275 41.7741H21.4517V27.0967ZM21.4517 47.4193V44.0322H23.7097V46.2902H25.9678V44.0322H28.3275C28.4878 44.9828 28.8412 45.8669 29.3549 46.6402V59.5981C28.8152 59.7506 28.2496 59.8386 27.6613 59.8386C27.0731 59.8386 26.5075 59.7506 25.9678 59.5981V48.5483H23.7097V58.4149C22.3312 57.2746 21.4517 55.5528 21.4517 53.629V47.4193ZM35.0001 67.7419C29.9296 67.7419 25.5072 64.9385 23.1847 60.804C24.4854 61.618 26.0163 62.0967 27.6613 62.0967C30.7989 62.0967 33.5368 60.3772 35.0001 57.8357C36.4633 60.3772 39.2012 62.0967 42.3388 62.0967C43.9838 62.0967 45.5147 61.618 46.8154 60.804C44.493 64.9385 40.0705 67.7419 35.0001 67.7419ZM48.5485 47.4193V53.629C48.5485 57.0522 45.762 59.8386 42.3388 59.8386C38.9155 59.8386 36.1291 57.0522 36.1291 53.629V49.5757C38.9596 49.0981 41.1939 46.8627 41.6726 44.0322H48.5485V47.4193ZM48.5485 41.7741H41.6726C41.1951 38.9436 38.9596 36.7093 36.1291 36.2306V27.0967H48.5485V41.7741Z" fill="#FFCE51"/>
    <path d="M38.3871 42.9032C38.3871 41.0358 36.8674 39.5161 35 39.5161C33.1326 39.5161 31.6129 41.0358 31.6129 42.9032C31.6129 44.7706 33.1326 46.2903 35 46.2903C36.8674 46.2903 38.3871 44.7706 38.3871 42.9032ZM33.871 42.9032C33.871 42.28 34.3768 41.7742 35 41.7742C35.6232 41.7742 36.129 42.28 36.129 42.9032C36.129 43.5264 35.6232 44.0322 35 44.0322C34.3768 44.0322 33.871 43.5264 33.871 42.9032Z" fill="#FFCE51"/>
    <path d="M39.5161 51.9356H41.7742V57.5807H44.0322V51.9356H46.2903V49.6775H44.0322V47.4194H41.7742V49.6775H39.5161V51.9356Z" fill="#FFCE51"/>
    <path d="M31.6129 29.3547H23.7097V36.1289H31.6129V29.3547ZM29.3549 33.8709H25.9678V31.6128H29.3549V33.8709Z" fill="#FFCE51"/>
    <path d="M42.9032 38.387C45.3939 38.387 47.4193 36.3615 47.4193 33.8709C47.4193 31.3802 45.3939 29.3547 42.9032 29.3547C40.4126 29.3547 38.3871 31.3802 38.3871 33.8709C38.3871 36.3615 40.4126 38.387 42.9032 38.387ZM42.9032 31.6128C44.1485 31.6128 45.1613 32.6255 45.1613 33.8709C45.1613 35.1162 44.1485 36.1289 42.9032 36.1289C41.6579 36.1289 40.6451 35.1162 40.6451 33.8709C40.6451 32.6255 41.6579 31.6128 42.9032 31.6128Z" fill="#FFCE51"/>
    <path d="M22.3131 16.2321L22.5807 16.4105V16.9355V22.5806H47.4194V16.9355V16.4105L47.6881 16.2321C49.393 15.0952 50.496 13.2921 50.7501 11.2903H53.0646V9.03226H50.6564C50.5141 8.31419 50.2646 7.63226 49.9157 7.00339L51.6048 5.31435L50.0083 3.7179L48.5089 5.21726C48.0427 4.79613 47.5177 4.43145 46.9351 4.14016C46.3627 3.85339 45.7665 3.6479 45.1614 3.50113V1.12903H42.9033V3.26403C41.5281 3.31597 40.1665 3.71226 38.9404 4.44726L37.9299 5.05355C38.2133 4.56016 38.3872 3.99565 38.3872 3.3871C38.3872 1.51968 36.8675 0 35.0001 0C33.1326 0 31.613 1.51968 31.613 3.3871C31.613 3.99565 31.7868 4.56016 32.0691 5.05355L31.0597 4.44726C30.1701 3.91548 29.2104 3.56548 28.2259 3.39048V1.12903H25.9678V3.30468C24.9743 3.40403 23.9909 3.67726 23.0651 4.14016C22.9781 4.18306 22.9025 4.23952 22.8178 4.28581L21.1209 2.58887L19.5244 4.18532L21.0305 5.69145C20.1759 6.62516 19.5922 7.77339 19.3438 9.03226H16.9355V11.2903H19.2501C19.5041 13.2921 20.6072 15.0952 22.3131 16.2321ZM40.1033 6.38355C41.8872 5.3121 44.0673 5.22968 45.9257 6.16C47.5425 6.96952 48.5485 8.59532 48.5485 10.4052C48.5485 11.6189 48.0856 12.7648 47.2794 13.6319C46.8357 11.5602 45.2664 9.87 43.1427 9.34048C42.2473 9.11581 41.3012 9.11581 40.4059 9.34048L38.3872 9.84516V7.90323C38.3872 7.74516 38.3612 7.59387 38.3409 7.44145L40.1033 6.38355ZM35.0001 2.25806C35.6233 2.25806 36.1291 2.76387 36.1291 3.3871C36.1291 4.01032 35.6233 4.51613 35.0001 4.51613C34.3768 4.51613 33.871 4.01032 33.871 3.3871C33.871 2.76387 34.3768 2.25806 35.0001 2.25806ZM33.871 7.90323C33.871 7.28 34.3768 6.77419 35.0001 6.77419C35.6233 6.77419 36.1291 7.28 36.1291 7.90323V14.6774C36.1291 15.3006 35.6233 15.8065 35.0001 15.8065C34.3768 15.8065 33.871 15.3006 33.871 14.6774V7.90323ZM40.6452 18.0645V15.8065H38.1794C38.3059 15.4519 38.3872 15.0748 38.3872 14.6774V12.171L40.9523 11.5297C41.4909 11.3976 42.0577 11.3976 42.5951 11.5297C44.1057 11.9079 45.1614 13.2594 45.1614 14.8163V15.8065H42.9033V18.0645H45.1614V20.3226H24.8388V18.0645H40.6452ZM24.8388 15.8065V14.8163C24.8388 13.2594 25.8944 11.9079 27.4039 11.5297C27.9425 11.3976 28.5093 11.3976 29.0467 11.5297L31.613 12.171V14.6774C31.613 15.0748 31.6943 15.4519 31.8207 15.8065H24.8388ZM24.0744 6.16C25.9351 5.22742 28.113 5.31323 29.8968 6.38355L31.6593 7.44145C31.6389 7.59387 31.613 7.74516 31.613 7.90323V9.84516L29.5943 9.34048C28.6989 9.11581 27.7517 9.11581 26.8564 9.34048C24.7326 9.87113 23.1644 11.5602 22.7207 13.6319C21.9146 12.7637 21.4517 11.6189 21.4517 10.4052C21.4517 8.59532 22.4576 6.96952 24.0744 6.16Z" fill="#FFCE51"/>
    <path d="M67.742 63.2258V58.7096H65.4839V58.1846L66.4899 57.514C67.9814 56.5204 68.871 54.8574 68.871 53.0645C68.871 51.2716 67.9814 49.6085 66.4899 48.615L65.4839 47.9443V44.6374L66.4899 43.9667C67.9814 42.9721 68.871 41.309 68.871 39.5161C68.871 37.7232 67.9814 36.0601 66.4899 35.0666L65.4839 34.3959V29.147C66.7948 28.6796 67.742 27.4377 67.742 25.9677C67.742 25.0972 67.4022 24.3103 66.8614 23.7096C67.4033 23.109 67.742 22.322 67.742 21.4516C67.742 19.9466 66.7485 18.6821 65.388 18.2429C64.933 15.5829 62.6252 13.5483 59.8388 13.5483C57.0523 13.5483 54.7446 15.5829 54.2896 18.2429C52.9291 18.6821 51.9356 19.9466 51.9356 21.4516C51.9356 22.322 52.2754 23.109 52.8162 23.7096C52.2743 24.3103 51.9356 25.0972 51.9356 25.9677C51.9356 27.4377 52.8828 28.6796 54.1936 29.147V31.4796L53.0635 30.914L53.0668 35.4583C53.0668 36.5806 53.4914 37.6227 54.1936 38.4232V45.028L53.0635 44.4624L53.0668 49.0067C53.0668 50.129 53.4914 51.1711 54.1936 51.9716V58.7096H51.9356V63.2258H49.6775V70H70.0001V63.2258H67.742ZM66.613 53.0645C66.613 54.0998 66.0981 55.0617 65.2367 55.6353L64.7298 55.974C63.0475 53.4122 60.3344 51.6712 57.2567 51.232C56.1559 51.0751 55.326 50.1188 55.3249 49.0045L55.3238 48.1103C57.5322 49.1366 59.9698 49.6774 62.4028 49.6774H64.0128L65.2367 50.4937C66.0981 51.0672 66.613 52.0291 66.613 53.0645ZM63.2259 57.8798V58.7096H56.4517V53.3512C56.6154 53.3941 56.7757 53.445 56.9462 53.4687C59.6265 53.8514 61.9512 55.4964 63.2259 57.8798ZM56.4517 46.1187V39.8029C56.6154 39.8458 56.7757 39.8966 56.9462 39.9203C59.6265 40.303 61.9512 41.948 63.2259 44.3314V47.4193H62.4028C60.3581 47.4193 58.318 46.9575 56.4517 46.1187ZM66.613 39.5161C66.613 40.5514 66.0981 41.5133 65.2367 42.0869L64.7298 42.4256C63.0475 39.8638 60.3344 38.1229 57.2567 37.6837C56.1559 37.5267 55.326 36.5704 55.3249 35.4561L55.3238 34.5619C57.5322 35.5882 59.9698 36.129 62.4028 36.129H64.0128L65.2367 36.9453C66.0981 37.5188 66.613 38.4808 66.613 39.5161ZM56.4517 32.5703V29.3548H63.2259V33.8709H62.4028C60.3581 33.8709 58.318 33.4091 56.4517 32.5703ZM59.8388 15.8064C61.3088 15.8064 62.5507 16.7537 63.0181 18.0645H56.6606C57.1268 16.7537 58.3688 15.8064 59.8388 15.8064ZM55.3227 20.3225H64.3549C64.9781 20.3225 65.4839 20.8283 65.4839 21.4516C65.4839 22.0748 64.9781 22.5806 64.3549 22.5806H55.3227C54.6994 22.5806 54.1936 22.0748 54.1936 21.4516C54.1936 20.8283 54.6994 20.3225 55.3227 20.3225ZM55.3227 24.8387H64.3549C64.9781 24.8387 65.4839 25.3445 65.4839 25.9677C65.4839 26.5909 64.9781 27.0967 64.3549 27.0967H55.3227C54.6994 27.0967 54.1936 26.5909 54.1936 25.9677C54.1936 25.3445 54.6994 24.8387 55.3227 24.8387ZM67.742 67.7419H51.9356V65.4838H56.4517V63.2258H54.1936V60.9677H65.4839V63.2258H58.7098V65.4838H67.742V67.7419Z" fill="#FFCE51"/>
    <path d="M18.0645 58.7096H15.8065V51.9727C16.5087 51.1733 16.9332 50.1301 16.9332 49.0079L16.9366 44.4635L15.8065 45.028V38.4243C16.5087 37.625 16.9332 36.5817 16.9332 35.4595L16.9366 30.9151L15.8065 31.4796V29.147C17.1173 28.6796 18.0645 27.4377 18.0645 25.9677C18.0645 25.0972 17.7247 24.3103 17.1839 23.7096C17.7258 23.109 18.0645 22.322 18.0645 21.4516C18.0645 19.9466 17.071 18.6821 15.7105 18.2429C15.2555 15.5829 12.9477 13.5483 10.1613 13.5483C7.37484 13.5483 5.0671 15.5829 4.6121 18.2429C3.25161 18.6821 2.25807 19.9466 2.25807 21.4516C2.25807 22.322 2.5979 23.109 3.13871 23.7096C2.5979 24.3103 2.25807 25.0972 2.25807 25.9677C2.25807 27.4377 3.20532 28.6796 4.51613 29.147V34.3959L3.51016 35.0666C2.01871 36.0601 1.12903 37.7232 1.12903 39.5161C1.12903 41.309 2.01871 42.9721 3.51016 43.9656L4.51613 44.6362V47.9443L3.51016 48.615C2.01871 49.6085 1.12903 51.2716 1.12903 53.0645C1.12903 54.8574 2.01871 56.5204 3.51016 57.514L4.51613 58.1846V58.7096H2.25807V63.2258H0V70H20.3226V63.2258H18.0645V58.7096ZM10.1613 15.8064C11.6313 15.8064 12.8732 16.7537 13.3406 18.0645H6.98194C7.44936 16.7537 8.69129 15.8064 10.1613 15.8064ZM5.64516 20.3225H14.6774C15.3006 20.3225 15.8065 20.8283 15.8065 21.4516C15.8065 22.0748 15.3006 22.5806 14.6774 22.5806H5.64516C5.02194 22.5806 4.51613 22.0748 4.51613 21.4516C4.51613 20.8283 5.02194 20.3225 5.64516 20.3225ZM5.64516 24.8387H14.6774C15.3006 24.8387 15.8065 25.3445 15.8065 25.9677C15.8065 26.5909 15.3006 27.0967 14.6774 27.0967H5.64516C5.02194 27.0967 4.51613 26.5909 4.51613 25.9677C4.51613 25.3445 5.02194 24.8387 5.64516 24.8387ZM13.5484 29.3548V32.5703C11.6821 33.4091 9.64194 33.8709 7.59726 33.8709H6.7742V29.3548H13.5484ZM3.3871 39.5161C3.3871 38.4808 3.90194 37.5188 4.76339 36.9453L5.98726 36.129H7.59726C10.0303 36.129 12.4668 35.5882 14.6774 34.5619L14.6763 35.4561C14.6752 36.5693 13.8453 37.5267 12.7355 37.6848C9.66565 38.124 6.95484 39.865 5.27145 42.4245L4.76452 42.0869C3.90194 41.5133 3.3871 40.5514 3.3871 39.5161ZM13.5484 39.804V46.1187C11.6821 46.9575 9.64194 47.4193 7.59726 47.4193H6.7742V44.3325C8.04887 41.9503 10.3736 40.3041 13.0595 39.9203C13.2277 39.8966 13.3858 39.8458 13.5484 39.804ZM3.3871 53.0645C3.3871 52.0291 3.90194 51.0672 4.76339 50.4937L5.98726 49.6774H7.59726C10.0303 49.6774 12.4668 49.1366 14.6774 48.1103L14.6763 49.0045C14.6752 50.1177 13.8453 51.0751 12.7355 51.2332C9.66565 51.6724 6.95484 53.4133 5.27145 55.9729L4.76452 55.6353C3.90194 55.0617 3.3871 54.0998 3.3871 53.0645ZM13.5484 53.3524V58.7096H6.7742V57.8809C8.04887 55.4987 10.3736 53.8525 13.0595 53.4687C13.2277 53.445 13.3858 53.3941 13.5484 53.3524ZM4.51613 60.9677H15.8065V63.2258H4.51613V60.9677ZM18.0645 67.7419H2.25807V65.4838H18.0645V67.7419Z" fill="#FFCE51"/>
  </symbol>

  <symbol id="award" width="70" height="70" viewBox="0 0 70 70" fill="none">
    <g clip-path="url(#clip0)">
      <path d="M34.9999 8.06641C32.5219 8.06641 30.1154 8.57163 27.8473 9.56871C27.1562 9.87259 26.8422 10.679 27.1455 11.3706C27.4494 12.0617 28.2563 12.3763 28.9474 12.0718C30.8668 11.2286 32.9032 10.8008 34.9999 10.8008C43.2922 10.8008 50.039 17.547 50.039 25.8393C50.039 34.1322 43.2922 40.8784 34.9999 40.8784C26.707 40.8784 19.9608 34.1322 19.9608 25.8393C19.9608 23.2032 20.6572 20.6029 21.9753 18.3203C22.3529 17.6661 22.1291 16.8298 21.4749 16.4527C20.8212 16.0751 19.9849 16.2989 19.6073 16.9531C18.0494 19.6512 17.2264 22.7242 17.2264 25.8393C17.2264 35.6398 25.1994 43.6128 34.9999 43.6128C44.7999 43.6128 52.7734 35.6398 52.7734 25.8393C52.7734 16.0394 44.7999 8.06641 34.9999 8.06641Z" fill="#FFCE51"/>
      <path d="M60.6229 24.9224L56.2916 20.1346L57.6487 13.822C57.7961 13.1358 57.3998 12.449 56.7312 12.2337L50.5863 10.2529L48.6055 4.10804C48.3903 3.4394 47.7035 3.0426 47.0167 3.19053L40.7046 4.54757L35.9168 0.216361C35.3961 -0.254679 34.603 -0.254145 34.0823 0.216361L29.2945 4.54757L22.9819 3.19053C22.2956 3.04206 21.6088 3.4394 21.3936 4.10804L19.4128 10.2529L13.2679 12.2337C12.5993 12.449 12.203 13.1358 12.3504 13.822L13.7074 20.1346L9.37623 24.9224C8.90519 25.4437 8.90519 26.2362 9.37623 26.7569L13.7074 31.5448L12.3504 37.8573C12.203 38.5436 12.5993 39.2304 13.2679 39.4456L19.4128 41.4264L19.4646 41.5867L13.2588 64.7456C13.1136 65.2882 13.3149 65.8649 13.7673 66.1987C14.2191 66.5325 14.8295 66.556 15.3053 66.258L22.2246 61.9225L26.0495 69.1366C26.2883 69.5873 26.755 69.8634 27.257 69.8634C27.3083 69.8634 27.3596 69.8602 27.4114 69.8549C27.9695 69.7913 28.4325 69.3929 28.5778 68.8498L33.4019 50.8472L34.0823 51.463C34.3429 51.6985 34.6714 51.8165 34.9998 51.8165C35.3277 51.8165 35.6562 51.6985 35.9168 51.463L36.5972 50.8472L41.4213 68.8498C41.5666 69.3929 42.0296 69.7913 42.5877 69.8544C42.6395 69.8602 42.6913 69.8634 42.7421 69.8634C43.2441 69.8634 43.7108 69.5868 43.9496 69.1366L47.7745 61.922L54.6937 66.2575C55.1701 66.556 55.78 66.5325 56.2318 66.1987C56.6842 65.8649 56.8855 65.2882 56.7403 64.745L55.0152 58.3075C54.8198 57.578 54.0705 57.1448 53.3404 57.3408C52.6115 57.5363 52.1783 58.2861 52.3738 59.0151L53.1989 62.0945L47.9806 58.8244C47.6591 58.6231 47.2677 58.5644 46.9008 58.6626C46.5339 58.7609 46.2246 59.0071 46.0468 59.343L43.1624 64.7835L38.8755 48.7858L40.7041 47.1312L47.0167 48.4883C47.7029 48.6368 48.3897 48.2394 48.6049 47.5713L48.9884 46.382L49.9331 49.9078C50.0971 50.5182 50.6493 50.9215 51.2528 50.9215C51.3703 50.9215 51.4894 50.906 51.608 50.8745C52.3369 50.679 52.7701 49.9292 52.5746 49.2002L50.5345 41.5861L50.5858 41.4264L56.7312 39.4456C57.3993 39.2299 57.7956 38.5431 57.6482 37.8568L56.2911 31.5448L60.6223 26.7564C61.0939 26.2362 61.0939 25.4431 60.6229 24.9224ZM26.8367 64.7835L23.9523 59.343C23.7744 59.0076 23.4647 58.7609 23.0978 58.6626C22.7309 58.5644 22.34 58.6231 22.0185 58.825L16.8002 62.0945L21.0102 46.382L21.3936 47.5713C21.6088 48.2399 22.2962 48.6373 22.9824 48.4888L29.2945 47.1318L31.1231 48.7858L26.8367 64.7835ZM53.7939 30.2304C53.4991 30.5562 53.3789 31.0048 53.4713 31.4347L54.7156 37.2229L49.0808 39.0392C48.6621 39.1743 48.3342 39.5022 48.1991 39.9209L46.3827 45.5558L40.5946 44.3114C40.1642 44.2185 39.7161 44.3386 39.3903 44.634L34.9998 48.6058L30.6093 44.634C30.3551 44.4043 30.0277 44.2804 29.6918 44.2804C29.5962 44.2804 29.5001 44.2906 29.4045 44.3114L23.6164 45.5558L21.8 39.9209C21.6654 39.5022 21.337 39.1738 20.9183 39.0392L15.284 37.2229L16.5283 31.4347C16.6207 31.0043 16.5006 30.5562 16.2052 30.2299L12.234 25.8399L16.2052 21.4494C16.5006 21.1231 16.6207 20.6751 16.5283 20.2446L15.284 14.4565L20.9183 12.6402C21.337 12.5056 21.6654 12.1771 21.8 11.7584L23.6164 6.12411L29.4045 7.36847C29.8344 7.46139 30.283 7.3407 30.6093 7.0459L34.9998 3.07411L39.3898 7.04536C39.7161 7.3407 40.1642 7.46086 40.5946 7.36793L46.3827 6.12358L48.1991 11.7584C48.3342 12.1771 48.6621 12.5056 49.0808 12.6402L54.7156 14.4565L53.4713 20.2446C53.3789 20.6751 53.4991 21.1231 53.7939 21.4494L57.7656 25.8399L53.7939 30.2304Z" fill="#FFCE51"/>
      <path d="M51.94 52.0231C51.2078 52.2063 50.7624 52.9497 50.9456 53.6824C51.101 54.3036 51.6585 54.718 52.2711 54.718C52.3806 54.718 52.4922 54.7046 52.6038 54.6769C53.336 54.4937 53.7814 53.7513 53.5982 53.0191L53.5977 53.0165C53.4145 52.2837 52.6727 51.8394 51.94 52.0231Z" fill="#FFCE51"/>
      <path d="M28.4093 28.7627L28.0386 33.0913C27.9762 33.8422 28.3046 34.5557 28.9172 35C29.2905 35.2708 29.7273 35.4102 30.1695 35.4102C30.4505 35.4102 30.734 35.3536 31.0043 35.2398L34.999 33.5506L38.9126 35.2056C39.6245 35.5298 40.4197 35.4657 41.0456 35.0321C41.6747 34.5952 42.0262 33.8513 41.9621 33.087L41.5893 28.7627L44.3984 25.5226C44.9111 24.9469 45.082 24.172 44.854 23.4462C44.6276 22.7236 44.0278 22.1687 43.2919 21.9989L39.0728 21.0189L36.8447 17.3222C36.4597 16.669 35.7771 16.2754 35.0156 16.2695C35.0097 16.2695 35.0033 16.2695 34.9974 16.2695C34.2401 16.2695 33.556 16.6557 33.164 17.3051L30.9258 21.0189L26.7115 21.9984C25.9734 22.1666 25.3913 22.6991 25.1542 23.4227C24.9187 24.1426 25.0736 24.9143 25.5702 25.4879L28.4093 28.7627ZM32.1076 23.5514C32.4676 23.4681 32.7784 23.2422 32.9691 22.9255L34.999 19.5577L37.0295 22.9255C37.2202 23.2422 37.531 23.4681 37.8909 23.5514L41.7175 24.4406L39.1449 27.4084C38.903 27.6877 38.7839 28.053 38.8159 28.421L39.1529 32.3383L35.532 30.8071C35.3617 30.735 35.1806 30.6987 34.999 30.6987C34.818 30.6987 34.6369 30.735 34.4666 30.8071L30.8478 32.3372L31.1832 28.4204C31.2142 28.0525 31.0956 27.6872 30.8537 27.4084L28.2816 24.4412L32.1076 23.5514Z" fill="#FFCE51"/>
      <path d="M23.2479 15.7584C23.602 15.7584 23.956 15.6217 24.2241 15.3488L24.2407 15.3317C24.7694 14.7923 24.7609 13.9266 24.2215 13.3979C23.6826 12.8697 22.8169 12.8777 22.2882 13.4171L22.2711 13.4342C21.7429 13.9736 21.7515 14.8393 22.2903 15.3675C22.5568 15.6286 22.9023 15.7584 23.2479 15.7584Z" fill="#FFCE51"/>
    </g>
    <defs>
      <clipPath id="clip0">
        <rect width="70" height="70" fill="white"/>
      </clipPath>
    </defs>
  </symbol>

  <symbol id="shield" width="70" height="70" viewBox="0 0 70 70" fill="none">
    <path d="M13.125 28.1641C12.3703 28.1641 11.7578 28.7766 11.7578 29.5312C11.7578 30.2859 12.3703 30.8984 13.125 30.8984C13.8797 30.8984 14.4922 30.2859 14.4922 29.5312C14.4922 28.7766 13.8797 28.1641 13.125 28.1641Z" fill="#FFCE51"/>
    <path d="M62.3438 11.7578C47.4452 11.7578 39.4388 3.79668 36.8078 1.18057C36.2723 0.64791 36.0034 0.380625 35.7201 0.205078C35.2788 -0.0683594 34.7208 -0.0683594 34.2796 0.205078C34.0848 0.325801 33.9279 0.479063 33.5487 0.84957C32.5746 1.80113 30.2936 4.02979 26.7665 6.23574C20.9055 9.89994 14.4758 11.7578 7.65625 11.7578C6.90115 11.7578 6.28906 12.3699 6.28906 13.125V31.0611C6.28906 39.6717 9.00539 47.8741 14.1446 54.7818C19.7179 62.2709 26.9849 67.655 34.6071 69.9423C34.7352 69.9807 34.8677 70 35 70C35.1323 70 35.2648 69.9807 35.3929 69.9423C43.0151 67.655 50.2822 62.2709 55.8555 54.7817C60.9946 47.8741 63.7109 39.6717 63.7109 31.0611V13.125C63.7109 12.3699 63.0988 11.7578 62.3438 11.7578ZM60.9766 31.0611C60.9766 39.0791 58.4471 46.7173 53.6618 53.1494C48.5341 60.0398 41.9207 65.0163 35 67.2023C28.0793 65.0163 21.4659 60.0398 16.3383 53.1496C11.5529 46.7173 9.02344 39.0791 9.02344 31.0611V14.4689C15.856 14.2356 22.3063 12.2489 28.2164 8.55422C31.5226 6.48635 33.7956 4.41055 35.0067 3.24543C37.874 6.09328 46.0521 14.0107 60.9766 14.4711V31.0611Z" fill="#FFCE51"/>
    <path d="M57.0255 16.9382C49.5004 16.1051 42.3612 13.06 35.806 7.88724C35.3151 7.49992 34.6244 7.49486 34.1281 7.8748C27.6352 12.8441 20.1184 16.0532 12.9623 16.9108C12.275 16.9933 11.7578 17.5762 11.7578 18.2683V24.0624C11.7578 24.8175 12.3699 25.4296 13.125 25.4296C13.8801 25.4296 14.4922 24.8175 14.4922 24.0624V19.4619C19.6937 18.67 27.0795 16.4665 34.9465 10.6792C41.3267 15.5136 48.2337 18.4773 55.5078 19.503V31.0612C55.5078 37.894 53.3519 44.4019 49.2728 49.8823C45.3661 55.1366 40.4395 58.9774 35 61.0159C29.5608 58.9775 24.6347 55.1376 20.7282 49.8845C17.437 45.4623 15.3572 40.2579 14.7137 34.8336C14.6248 34.0838 13.9452 33.5468 13.195 33.637C12.4452 33.7259 11.9094 34.4059 11.9984 35.1557C12.6982 41.0543 14.9584 46.7118 18.5344 51.5167C22.8744 57.3528 28.4102 61.5863 34.5434 63.7595C34.691 63.8119 34.8455 63.838 35 63.838C35.1545 63.838 35.309 63.8119 35.4566 63.7595C41.5903 61.5861 47.1265 57.3515 51.4667 51.5143C55.8992 45.559 58.2422 38.4864 58.2422 31.0611V18.297C58.2422 17.6002 57.7181 17.0149 57.0255 16.9382Z" fill="#FFCE51"/>
    <path d="M48.572 29.9701C48.4111 29.4752 47.9833 29.1144 47.4683 29.0396L39.6622 27.9057L36.1726 20.8327C35.9423 20.3659 35.467 20.0704 34.9466 20.0703C34.4263 20.0703 33.9509 20.3658 33.7207 20.8324L30.2298 27.9057L22.4236 29.0396C21.9086 29.1144 21.4808 29.4752 21.3199 29.9701C21.1591 30.465 21.2932 31.0084 21.6659 31.3716L27.3144 36.8774L25.9813 44.6524C25.8932 45.1652 26.1042 45.6836 26.5253 45.9895C26.7635 46.1626 27.0455 46.2506 27.3289 46.2506C27.5466 46.2506 27.7651 46.1988 27.9651 46.0935L34.9466 42.4222L41.9268 46.0934C42.3875 46.3355 42.9458 46.2954 43.3667 45.9895C43.7878 45.6836 43.9988 45.1652 43.9107 44.6522L42.5776 36.8773L48.2261 31.3715C48.5987 31.0085 48.7328 30.4652 48.572 29.9701ZM40.1541 35.4211C39.8319 35.7351 39.6847 36.1877 39.7609 36.6312L40.7472 42.3838L35.5828 39.6677C35.1844 39.4583 34.7085 39.4583 34.3101 39.6677L29.1441 42.3842L30.1306 36.6313C30.2067 36.1878 30.0596 35.7353 29.7374 35.4212L25.558 31.3476L31.334 30.5085C31.7793 30.4439 32.1643 30.1641 32.3635 29.7607L34.9462 24.5275L37.528 29.7605C37.7271 30.1641 38.1121 30.444 38.5575 30.5087L44.3335 31.3477L40.1541 35.4211Z" fill="#FFCE51"/>
  </symbol>

  <symbol id="mail" width="201" height="105" viewBox="0 0 201 105" fill="none">
    <path d="M60.1876 4.92749L121.657 58.354C125.825 61.9765 132.032 61.9475 136.166 58.2861L196.41 4.92749" stroke="#056CDE" stroke-width="5"/>
    <path d="M60.1876 100.669L107.094 46.0513" stroke="#056CDE" stroke-width="5"/>
    <path d="M196.41 101.311L149.503 46.6938" stroke="#056CDE" stroke-width="5"/>
    <path d="M132.797 20.9917L81.3921 20.9917" stroke="#056CDE" stroke-width="5" stroke-linecap="round" stroke-linejoin="round"/>
    <path d="M152.074 20.9917H145.648" stroke="#056CDE" stroke-width="5" stroke-linecap="round" stroke-linejoin="round"/>
    <path d="M22.2767 35.1279H15.8511" stroke="#056CDE" stroke-width="5" stroke-linecap="round" stroke-linejoin="round"/>
    <path d="M58.2599 35.1279H35.1278" stroke="#056CDE" stroke-width="5" stroke-linecap="round" stroke-linejoin="round"/>
    <path d="M38.9832 64.6855H15.8511" stroke="#056CDE" stroke-width="5" stroke-linecap="round" stroke-linejoin="round"/>
    <path d="M58.26 50.5491H3" stroke="#056CDE" stroke-width="5" stroke-linecap="round" stroke-linejoin="round"/>
    <path d="M119.303 35.1279H96.8134" stroke="#056CDE" stroke-width="5" stroke-linecap="round" stroke-linejoin="round"/>
    <rect x="58.2599" y="3" width="140.078" height="98.9539" rx="4" stroke="#056CDE" stroke-width="5"/>
    <path d="M179.703 82.6775H141.15" stroke="#056CDE" stroke-width="5" stroke-linecap="round" stroke-linejoin="round"/>
  </symbol>

  <symbol id="youtube" width="30" height="30" viewBox="0 0 30 30" fill="none">
    <path fill-rule="evenodd" clip-rule="evenodd" d="M7.22141 8.21291L7.22088 3.4192L11.7982 5.82432L7.22141 8.21291ZM17.33 2.58853C17.33 2.58853 17.1637 1.41289 16.6542 0.895188C16.0077 0.2154 15.2831 0.212201 14.9511 0.172746C12.5721 0 9.00372 0 9.00372 0H8.99628C8.99628 0 5.42788 0 3.04894 0.172746C2.71638 0.212201 1.99228 0.2154 1.34522 0.895188C0.83575 1.41289 0.67 2.58853 0.67 2.58853C0.67 2.58853 0.5 3.96943 0.5 5.3498V6.64433C0.5 8.02524 0.67 9.40561 0.67 9.40561C0.67 9.40561 0.83575 10.5812 1.34522 11.0989C1.99228 11.7787 2.84175 11.7574 3.22 11.8283C4.58 11.9595 9 12 9 12C9 12 12.5721 11.9947 14.9511 11.8219C15.2831 11.7819 16.0077 11.7787 16.6542 11.0989C17.1637 10.5812 17.33 9.40561 17.33 9.40561C17.33 9.40561 17.5 8.02524 17.5 6.64433V5.3498C17.5 3.96943 17.33 2.58853 17.33 2.58853Z" fill="#056CDE"/>
  </symbol>

  <symbol id="google" width="30" height="30" viewBox="0 0 30 30" fill="none">
    <path fill-rule="evenodd" clip-rule="evenodd" d="M6.12117 0.00480935C2.96717 -0.0981907 0.0691727 2.60881 0.0161727 5.69981C-0.184827 8.22681 1.50917 10.7048 3.90317 11.5978C6.28717 12.4978 9.34417 11.8848 10.8662 9.78481C11.8722 8.45881 12.0882 6.75081 11.9712 5.14681C11.9712 5.14681 8.07017 5.14081 6.12117 5.14681C6.11861 5.73007 6.12043 6.30895 6.12226 6.89094C6.12257 6.98946 6.12288 7.08807 6.12317 7.18681C6.83864 7.20951 7.55524 7.21188 8.27158 7.21425C8.72266 7.21575 9.17364 7.21724 9.62417 7.22381C9.11017 9.75881 5.59117 10.5818 3.73017 8.92581C1.81617 7.47281 1.90717 4.28781 3.89717 2.93881C5.28817 1.84981 7.26617 2.11881 8.65717 3.06181C9.20417 2.56581 9.71517 2.03581 10.2092 1.48581C9.05117 0.580809 7.63117 -0.0641907 6.12117 0.00480935ZM17.0006 3.00001H15.0026C14.9986 3.3756 15.0001 3.75344 15.0016 4.13171C15.0027 4.42117 15.0039 4.71087 15.0026 5.00001C14.7061 5.00134 14.4086 5.00031 14.1112 4.99927C13.7397 4.99797 13.3684 4.99668 12.9996 5.00001V6.99901C13.3316 7.00251 13.6667 7.00076 14.0016 6.99901C14.3364 6.99726 14.6711 6.99551 15.0026 6.99901C15.0062 7.33903 15.0045 7.68221 15.0028 8.0253C15.0012 8.3512 14.9997 8.67703 15.0026 9.00001H17.0006C17.0019 8.71295 17.0007 8.42439 16.9996 8.1353C16.9981 7.75671 16.9966 7.37722 17.0006 6.99901C17.3337 6.99551 17.6678 6.99726 18.0016 6.99901C18.3351 7.00076 18.6682 7.00251 18.9996 6.99901V5.00001C18.6766 4.99709 18.3512 4.99867 18.0258 5.00026C17.6832 5.00193 17.3406 5.0036 17.0006 5.00001C16.9966 4.62419 16.9981 4.24483 16.9996 3.86594C17.0007 3.57643 17.0019 3.28719 17.0006 3.00001Z" fill="#056CDE"/>
  </symbol>

  <symbol id="yelp" width="30" height="30" viewBox="0 0 30 30" fill="none">
    <path fill-rule="evenodd" clip-rule="evenodd" d="M9.30565 14.7028C9.04992 15.1193 8.9422 16.4308 9.03029 17.3013C9.0615 17.5888 9.11285 17.8283 9.18685 17.9713C9.28904 18.1688 9.4612 18.2868 9.65753 18.2933C9.78338 18.3003 9.8614 18.2783 12.2254 17.5058C12.2254 17.5058 13.276 17.1658 13.2805 17.1633C13.5423 17.0963 13.7184 16.8513 13.7361 16.5383C13.7527 16.2183 13.5896 15.9348 13.3213 15.8328C13.3213 15.8328 12.5813 15.5258 12.5792 15.5258C10.0391 14.4613 9.92533 14.4193 9.79697 14.4178C9.60115 14.4103 9.42596 14.5103 9.30565 14.7028ZM14.9884 22.6346C15.0297 22.5141 15.0342 22.4306 15.0413 19.9071C15.0413 19.9071 15.0473 18.7926 15.0478 18.7806C15.0644 18.5082 14.8913 18.2597 14.6053 18.1472C14.3118 18.0327 13.9962 18.1037 13.819 18.3287C13.819 18.3287 13.301 18.9536 13.299 18.9536C11.5185 21.0771 11.4455 21.1751 11.4017 21.3011C11.3755 21.3761 11.3644 21.4541 11.374 21.5326C11.3846 21.6446 11.4339 21.7566 11.5175 21.8596C11.9298 22.3586 13.9091 23.0986 14.5409 22.9891C14.7609 22.9481 14.92 22.8226 14.9884 22.6346ZM19.0022 21.7565C19.5987 21.515 20.901 19.8325 20.9926 19.185C21.0239 18.96 20.9549 18.7655 20.8019 18.642C20.7022 18.5655 20.6247 18.5356 18.2627 17.7481C18.2627 17.7481 17.2267 17.4001 17.2131 17.3936C16.9629 17.2951 16.676 17.3856 16.4837 17.6281C16.2844 17.8756 16.2532 18.2011 16.4127 18.4486L16.83 19.138C18.233 21.4525 18.3397 21.616 18.4409 21.696C18.597 21.821 18.7953 21.8415 19.0022 21.7565ZM17.7825 15.7993C20.4671 15.1388 20.5708 15.1033 20.677 15.0328C20.8391 14.9223 20.9207 14.7358 20.9071 14.5088C20.9071 14.5013 20.9081 14.4943 20.9071 14.4858C20.8381 13.8168 19.6823 12.0738 19.1135 11.7913C18.9121 11.6928 18.7097 11.6998 18.5436 11.8133C18.4399 11.8823 18.3629 11.9858 16.9257 13.9828C16.9257 13.9828 16.2758 14.8823 16.2683 14.8908C16.0966 15.1018 16.0951 15.4058 16.2617 15.6658C16.4349 15.9348 16.7279 16.0658 16.9962 15.9903C16.9962 15.9903 16.9851 16.0093 16.9821 16.0133C17.1145 15.9618 17.3516 15.9033 17.7825 15.7993ZM15.0862 13.5469C15.0404 12.4664 14.7208 7.65247 14.683 7.42897C14.6276 7.22747 14.4731 7.08297 14.2491 7.02547C13.5645 6.85247 10.9453 7.59897 10.4595 8.10796C10.3039 8.27296 10.2455 8.47696 10.2924 8.65645C10.3684 8.81645 13.6148 14.0044 13.6148 14.0044C14.095 14.7949 14.4862 14.6724 14.614 14.6319C14.7414 14.5914 15.1305 14.4689 15.0862 13.5469Z" fill="#056CDE"/>
  </symbol>

  <symbol id="linkdin" width="30" height="30" viewBox="0 0 30 30" fill="none">
    <path fill-rule="evenodd" clip-rule="evenodd" d="M18.7 11C17.1 11 16 11.8 15.6 12.4L15.4 11.4H13V21.1H15.7V15.3C15.7 15 15.7 14.7 15.8 14.6C16 14.1 16.7 13.5 17.5 13.5C18.6 13.5 19.3 14.3 19.3 15.6V21.2H22V15.2C22 12.2 20.6 11 18.7 11ZM8.3 21H11V11.3H8.3V21ZM9.7 7C8.7 7 8 7.6 8 8.5C8 9.4 8.7 10 9.7 10C10.8 10 11.4 9.4 11.4 8.5C11.3 7.6 10.7 7 9.7 7Z" fill="#056CDE"/>
  </symbol>

  <symbol id="vimeo" width="30" height="30" viewBox="0 0 30 30" fill="none">
    <path d="M23.1646 11.4334C23.0904 13.1044 21.9207 15.3927 19.6602 18.2983C17.3255 21.3339 15.3482 22.8517 13.7329 22.8517C12.7303 22.8517 11.8855 21.9281 11.1939 20.0807C10.7298 18.3865 10.2703 16.6923 9.80611 14.9982C9.29089 13.1508 8.74318 12.2271 8.1537 12.2271C8.02374 12.2271 7.5735 12.4963 6.80764 13.0348L6 11.9951C6.84941 11.2524 7.6849 10.5051 8.50646 9.76244C9.63901 8.78771 10.4838 8.27249 11.0501 8.22143C12.3868 8.09147 13.2084 9.00586 13.5194 10.96C13.8536 13.0719 14.0857 14.3808 14.2156 14.8961C14.6009 16.6459 15.0233 17.5186 15.4874 17.5186C15.8448 17.5186 16.3879 16.9523 17.1073 15.8151C17.8268 14.6779 18.212 13.8146 18.2631 13.2204C18.3652 12.2411 17.98 11.749 17.1073 11.749C16.6942 11.749 16.2719 11.8419 15.8355 12.0322C16.6803 9.27043 18.291 7.92437 20.6721 8.00328C22.4359 8.05433 23.2667 9.19617 23.1646 11.4334Z" fill="#056CDE"/>
  </symbol>

</svg>
